<svg viewBox="0 0 1366 1366" xmlns="http://www.w3.org/2000/svg" xml:space="preserve" style="fill-rule:evenodd;clip-rule:evenodd;stroke-linejoin:round;stroke-miterlimit:2"><path style="fill:none" d="M0 0h1365.33v1365.33H0z"/><clipPath id="a"><path d="M0 0h1365.33v1365.33H0z"/></clipPath><g clip-path="url(#a)"><path d="m963.137 0 400.269 397.545 1.927 564.14-397.544 400.269-564.14 1.927L3.379 966.336 1.452 402.197 398.997 1.927 963.137 0Zm-9.382 22.87 386.846 384.212 1.863 545.221-384.213 386.846-545.221 1.862L26.184 956.799l-1.862-545.221L408.534 24.732l545.221-1.862Z" style="fill:#e63db6"/><path d="m147.142 1064.04 69.297-319.873c11.826-54.329 21.343-110.967 28.55-169.915 7.207-58.949 10.81-113.37 10.81-163.263 0-11.457-.185-21.621-.554-30.491l60.981-27.719v15.523c0 24.392-2.218 63.753-6.653 118.081-4.435 54.329-9.054 96.092-13.859 125.289 22.545-52.851 50.633-101.913 84.265-147.186 33.632-45.274 68.095-81.031 103.39-107.272 35.296-26.24 67.357-39.36 96.184-39.36 28.828 0 52.019 11.549 69.574 34.648 17.555 23.099 26.333 54.052 26.333 92.858 0 48.785-10.533 97.754-31.599 146.909-21.067 49.154-49.802 94.428-86.206 135.821-36.403 41.393-76.318 74.009-119.744 97.847-43.426 23.838-86.39 35.757-128.892 35.757-9.609 0-20.881-1.293-33.817-3.88l29.382-39.361c18.11 5.913 36.589 8.87 55.437 8.87 30.676 0 61.443-10.256 92.304-30.768 30.86-20.512 58.486-49.431 82.878-86.759 22.545-34.371 41.763-77.15 57.655-128.338 15.892-51.187 23.838-95.444 23.838-132.772 0-31.045-5.266-55.253-15.799-72.623-10.533-17.37-25.224-26.055-44.073-26.055-26.61 0-57.285 15.245-92.026 45.735-34.741 30.491-68.742 71.792-102.005 123.903-24.023 36.958-44.072 76.873-60.149 119.744-16.077 42.872-30.398 92.581-42.964 149.127l-59.873 275.523h-52.665Zm715.696-690.193 57.1-26.61-1.663 14.413a10486.557 10486.557 0 0 1-2.772 27.442c-.739 7.207-1.478 12.843-2.217 16.908l-6.652 44.35c0 .37-.74 5.174-2.218 14.414 30.675-30.676 61.258-57.84 91.749-81.493 30.49-23.653 58.117-41.209 82.879-52.666 24.762-11.457 47.491-17.185 68.188-17.185 21.805 0 39.083 7.392 51.833 22.175 12.751 14.783 19.126 35.11 19.126 60.981 0 29.197-9.886 61.997-29.659 98.401-19.772 36.404-47.953 73.824-84.542 112.261-39.545 41.763-75.579 73.547-108.102 95.352 11.826-.739 18.479-1.109 19.957-1.109 39.915 0 72.623 11.827 98.124 35.48 25.501 23.653 38.252 54.329 38.252 92.026 0 37.697-10.903 74.841-32.708 111.429-21.805 36.589-51.926 68.003-90.363 94.244-42.502 29.197-92.026 43.795-148.572 43.795-47.307 0-80.754-9.239-100.342-27.719l27.165-35.479c11.826 12.565 26.61 22.821 44.35 30.767 17.739 7.946 36.034 11.919 54.883 11.919 33.262 0 64.214-10.071 92.857-30.213 28.643-20.142 51.557-46.937 68.742-80.384 17.186-33.447 25.779-69.204 25.779-107.271 0-24.023-4.343-44.627-13.028-61.813s-20.974-30.491-36.866-39.915-34.556-14.136-55.992-14.136c-10.348 0-22.729 1.847-37.143 5.543l5.544-27.164c32.893-18.849 65.047-43.149 96.461-72.9 31.415-29.751 57.84-60.889 79.275-93.412 28.458-42.872 42.687-82.047 42.687-117.527 0-21.436-5.636-38.622-16.908-51.557-11.272-12.935-26.148-19.403-44.627-19.403-33.263 0-76.134 21.621-128.615 64.862-35.849 29.936-64.307 58.209-85.373 84.819l-1.663 9.979c-5.914 40.284-14.322 83.987-25.224 131.109-10.903 47.122-24.023 96.646-39.361 148.572-15.338 51.926-30.583 99.14-45.736 141.642-17.74 49.524-34.925 86.205-51.556 110.043-16.632 23.838-33.078 35.758-49.34 35.758-25.131 0-37.697-21.067-37.697-63.199 0-28.088 5.266-64.215 15.8-108.38 10.533-44.165 23.745-86.39 39.637-126.674 38.067-97.2 85.004-177.954 140.811-242.262 3.326-21.805 6.653-47.676 9.979-77.612 3.696-36.219 6.283-63.753 7.761-82.601Zm-23.284 194.03c-28.088 34.371-54.975 76.319-80.661 125.843s-46.475 99.972-62.367 151.344c-9.609 31.045-17.463 61.72-23.561 92.026-6.098 30.306-9.147 53.589-9.147 69.851 0 23.284 5.728 34.925 17.186 34.925 8.13-.369 15.892-6.19 23.283-17.462 7.392-11.273 16.631-30.768 27.719-58.487 5.913-14.783 12.75-33.447 20.512-55.991 7.761-22.545 14.875-44.258 21.343-65.139 6.468-20.882 13.49-45.366 21.066-73.455 7.577-28.088 13.213-49.893 16.909-65.416 13.305-55.068 22.544-101.081 27.718-138.039Z" style="fill:#e63db6;fill-rule:nonzero"/></g></svg>